<svg width="100" height="26" viewBox="0 0 100 26" fill="none" xmlns="http://www.w3.org/2000/svg">
<path d="M32.5994 25.0573C31.9471 25.0573 31.3662 24.9454 30.8569 24.7216C30.3475 24.4977 29.9454 24.1933 29.6505 23.8084C29.3556 23.4145 29.1903 22.9758 29.1545 22.4923H31.4198C31.4467 22.752 31.5673 22.9623 31.7818 23.1235C31.9962 23.2846 32.2598 23.3652 32.5726 23.3652C32.8586 23.3652 33.0775 23.3115 33.2294 23.2041C33.3903 23.0877 33.4707 22.94 33.4707 22.7609C33.4707 22.546 33.359 22.3894 33.1356 22.2909C32.9122 22.1835 32.5503 22.0671 32.0498 21.9417C31.5137 21.8164 31.0669 21.6866 30.7094 21.5523C30.352 21.409 30.0437 21.1897 29.7845 20.8943C29.5254 20.5899 29.3958 20.1825 29.3958 19.6722C29.3958 19.2425 29.512 18.853 29.7443 18.5039C29.9856 18.1458 30.3341 17.8638 30.7899 17.6579C31.2545 17.4519 31.8041 17.349 32.4386 17.349C33.3769 17.349 34.1141 17.5818 34.6503 18.0473C35.1954 18.5128 35.5081 19.1306 35.5886 19.9005H33.4707C33.4349 19.6409 33.3188 19.435 33.1222 19.2828C32.9345 19.1306 32.6843 19.0545 32.3715 19.0545C32.1035 19.0545 31.8979 19.1082 31.755 19.2156C31.612 19.3141 31.5405 19.4529 31.5405 19.6319C31.5405 19.8468 31.6522 20.0079 31.8756 20.1154C32.1079 20.2228 32.4654 20.3302 32.9479 20.4377C33.502 20.5809 33.9532 20.7242 34.3018 20.8674C34.6503 21.0017 34.9541 21.2255 35.2132 21.5389C35.4813 21.8433 35.6198 22.2551 35.6288 22.7743C35.6288 23.213 35.5037 23.6069 35.2534 23.9561C35.0122 24.2963 34.6592 24.5649 34.1945 24.7618C33.7388 24.9588 33.2071 25.0573 32.5994 25.0573ZM39.5644 25.0573C38.8316 25.0573 38.1703 24.9006 37.5806 24.5873C36.9997 24.2739 36.5395 23.8263 36.1999 23.2444C35.8693 22.6624 35.704 21.982 35.704 21.2031C35.704 20.4332 35.8738 19.7573 36.2133 19.1753C36.5529 18.5845 37.0176 18.1324 37.6074 17.819C38.1972 17.5057 38.8584 17.349 39.5912 17.349C40.324 17.349 40.9852 17.5057 41.575 17.819C42.1648 18.1324 42.6295 18.5845 42.9691 19.1753C43.3086 19.7573 43.4784 20.4332 43.4784 21.2031C43.4784 21.9731 43.3042 22.6535 42.9556 23.2444C42.6161 23.8263 42.1469 24.2739 41.5482 24.5873C40.9584 24.9006 40.2971 25.0573 39.5644 25.0573ZM39.5644 23.0698C40.0023 23.0698 40.3731 22.9086 40.6769 22.5863C40.9897 22.264 41.1461 21.803 41.1461 21.2031C41.1461 20.6033 40.9942 20.1422 40.6903 19.8199C40.3954 19.4976 40.0291 19.3365 39.5912 19.3365C39.1444 19.3365 38.7735 19.4976 38.4786 19.8199C38.1838 20.1333 38.0363 20.5944 38.0363 21.2031C38.0363 21.803 38.1793 22.264 38.4652 22.5863C38.7601 22.9086 39.1265 23.0698 39.5644 23.0698ZM47.5764 19.3634H46.3432V24.9499H44.0511V19.3634H43.22V17.4564H44.0511V17.2416C44.0511 16.3194 44.3147 15.6211 44.8419 15.1466C45.3691 14.6632 46.1421 14.4214 47.1608 14.4214C47.3306 14.4214 47.4557 14.4259 47.5362 14.4349V16.3821C47.0983 16.3552 46.79 16.4179 46.6113 16.5701C46.4325 16.7223 46.3432 16.9954 46.3432 17.3893V17.4564H47.5764V19.3634ZM51.951 23.0026V24.9499H50.7848C49.9536 24.9499 49.3057 24.7484 48.841 24.3455C48.3763 23.9337 48.144 23.2667 48.144 22.3446V19.3634H47.2325V17.4564H48.144V15.6301H50.4363V17.4564H51.9374V19.3634H50.4363V22.3715C50.4363 22.5953 50.4899 22.7564 50.5972 22.8549C50.7042 22.9534 50.8829 23.0026 51.1331 23.0026H51.951ZM63.0932 17.4564L61.069 24.9499H58.5356L57.3562 20.0885L56.1362 24.9499H53.6163L51.5788 17.4564H53.8709L54.9299 22.8146L56.1901 17.4564H58.6162L59.8894 22.7878L60.9351 17.4564H63.0932ZM62.6403 21.1897C62.6403 20.4198 62.7832 19.7438 63.0692 19.1619C63.3641 18.58 63.7617 18.1324 64.2622 17.819C64.7626 17.5057 65.3211 17.349 65.9377 17.349C66.4649 17.349 66.9251 17.4564 67.3183 17.6713C67.7205 17.8862 68.0287 18.1682 68.2432 18.5173V17.4564H70.5353V24.9499H68.2432V23.889C68.0198 24.2381 67.707 24.5201 67.3049 24.735C66.9117 24.9499 66.4515 25.0573 65.9243 25.0573C65.3166 25.0573 64.7626 24.9006 64.2622 24.5873C63.7617 24.265 63.3641 23.8129 63.0692 23.2309C62.7832 22.64 62.6403 21.9596 62.6403 21.1897ZM68.2432 21.2031C68.2432 20.6302 68.0824 20.178 67.7607 19.8468C67.4479 19.5155 67.0636 19.3499 66.6079 19.3499C66.1522 19.3499 65.7634 19.5155 65.4417 19.8468C65.129 20.1691 64.9726 20.6167 64.9726 21.1897C64.9726 21.7627 65.129 22.2193 65.4417 22.5595C65.7634 22.8907 66.1522 23.0564 66.6079 23.0564C67.0636 23.0564 67.4479 22.8907 67.7607 22.5595C68.0824 22.2282 68.2432 21.7761 68.2432 21.2031ZM73.6144 18.7053C73.8825 18.2935 74.2176 17.9712 74.6197 17.7384C75.0218 17.4967 75.4686 17.3758 75.9601 17.3758V19.8065H75.3301C74.7582 19.8065 74.3293 19.9318 74.0433 20.1825C73.7574 20.4242 73.6144 20.854 73.6144 21.4717V24.9499H71.3223V17.4564H73.6144V18.7053ZM83.2351 21.0823C83.2351 21.2971 83.2217 21.521 83.1949 21.7537H78.0074C78.0432 22.2193 78.1906 22.5774 78.4498 22.8281C78.7178 23.0698 79.044 23.1906 79.4283 23.1906C80.0002 23.1906 80.3978 22.9489 80.6212 22.4655H83.0608C82.9357 22.9579 82.7078 23.401 82.3772 23.7949C82.0555 24.1889 81.6489 24.4977 81.1574 24.7216C80.6659 24.9454 80.1163 25.0573 79.5087 25.0573C78.7759 25.0573 78.1236 24.9006 77.5517 24.5873C76.9798 24.2739 76.533 23.8263 76.2113 23.2444C75.8896 22.6624 75.7287 21.982 75.7287 21.2031C75.7287 20.4242 75.8851 19.7438 76.1979 19.1619C76.5196 18.58 76.9664 18.1324 77.5383 17.819C78.1102 17.5057 78.767 17.349 79.5087 17.349C80.2325 17.349 80.8759 17.5012 81.4389 17.8056C82.0019 18.11 82.4397 18.5442 82.7525 19.1082C83.0742 19.6722 83.2351 20.3302 83.2351 21.0823ZM80.8893 20.478C80.8893 20.084 80.7553 19.7707 80.4872 19.5379C80.2191 19.3052 79.884 19.1888 79.4819 19.1888C79.0976 19.1888 78.7715 19.3007 78.5034 19.5245C78.2442 19.7483 78.0834 20.0661 78.0208 20.478H80.8893Z" fill="#BDBDBD"/>
<path d="M54.9295 2.60699V5.19546H58.9048V7.53227H54.9295V10.3724H59.4396V12.7991H51.8812V10.678H47.7633L46.6937 12.7991H43.3958L49.7955 0.180298H59.4396V2.60699H54.9295ZM51.8812 8.34117V2.46318L48.9398 8.34117H51.8812Z" fill="#BDBDBD"/>
<path d="M64.7041 12.7991C63.7853 12.7991 62.9621 12.6507 62.2342 12.354C61.5064 12.0573 60.9217 11.6182 60.4803 11.0367C60.0507 10.4552 59.824 9.75505 59.8002 8.9362H63.0575C63.1052 9.39903 63.2663 9.75505 63.5407 10.0043C63.8152 10.2416 64.1731 10.3603 64.6146 10.3603C65.068 10.3603 65.4259 10.2594 65.6884 10.0577C65.9509 9.84406 66.0822 9.55331 66.0822 9.18542C66.0822 8.87686 65.9748 8.62171 65.76 8.41997C65.5572 8.21822 65.3006 8.05207 64.9904 7.92153C64.6921 7.79099 64.2626 7.64265 63.7018 7.4765C62.8905 7.22728 62.2283 6.97807 61.7152 6.72885C61.2021 6.47964 60.7607 6.11174 60.3908 5.62518C60.0209 5.13861 59.836 4.5037 59.836 3.72045C59.836 2.55744 60.2595 1.64958 61.1067 0.996867C61.9538 0.332289 63.0575 0 64.4177 0C65.8018 0 66.9174 0.332289 67.7645 0.996867C68.6117 1.64958 69.0651 2.56337 69.1247 3.73825H65.8137C65.7898 3.33476 65.6407 3.02027 65.3663 2.79479C65.0918 2.55744 64.7399 2.43876 64.3103 2.43876C63.9404 2.43876 63.6422 2.53964 63.4155 2.74138C63.1888 2.93126 63.0754 3.21015 63.0754 3.57804C63.0754 3.98153 63.2663 4.29602 63.6481 4.5215C64.0299 4.74699 64.6265 4.99027 65.4379 5.25135C66.2492 5.5243 66.9054 5.78539 67.4066 6.03461C67.9196 6.28382 68.3611 6.64578 68.731 7.12048C69.1009 7.59518 69.2858 8.20635 69.2858 8.954C69.2858 9.66605 69.1009 10.3128 68.731 10.8943C68.373 11.4758 67.848 11.9387 67.156 12.2828C66.464 12.627 65.6467 12.7991 64.7041 12.7991ZM79.044 0.178012V2.61678H75.7151V12.6745H72.6546V2.61678H69.3257V0.178012H79.044ZM82.4235 0.178012V7.65451C82.4235 8.40216 82.6084 8.97774 82.9783 9.38123C83.3482 9.78472 83.891 9.98647 84.6069 9.98647C85.3228 9.98647 85.8717 9.78472 86.2535 9.38123C86.6353 8.97774 86.8262 8.40216 86.8262 7.65451V0.178012H89.8867V7.63671C89.8867 8.75225 89.648 9.69572 89.1708 10.4671C88.6935 11.2385 88.0492 11.82 87.2379 12.2116C86.4384 12.6032 85.5436 12.7991 84.5532 12.7991C83.5629 12.7991 82.674 12.6092 81.8865 12.2294C81.111 11.8378 80.4965 11.2563 80.0431 10.4849C79.5897 9.70165 79.363 8.75225 79.363 7.63671V0.178012H82.4235ZM95.4183 12.7991C94.4996 12.7991 93.6763 12.6507 92.9484 12.354C92.2206 12.0573 91.636 11.6182 91.1945 11.0367C90.765 10.4552 90.5383 9.75505 90.5144 8.9362H93.7717C93.8195 9.39903 93.9805 9.75505 94.255 10.0043C94.5294 10.2416 94.8873 10.3603 95.3288 10.3603C95.7822 10.3603 96.1402 10.2594 96.4027 10.0577C96.6651 9.84406 96.7964 9.55331 96.7964 9.18542C96.7964 8.87686 96.689 8.62171 96.4742 8.41997C96.2714 8.21822 96.0149 8.05207 95.7046 7.92153C95.4064 7.79099 94.9768 7.64265 94.416 7.4765C93.6047 7.22728 92.9425 6.97807 92.4294 6.72885C91.9164 6.47964 91.4749 6.11174 91.105 5.62518C90.7351 5.13861 90.5502 4.5037 90.5502 3.72045C90.5502 2.55744 90.9738 1.64958 91.8209 0.996867C92.6681 0.332289 93.7717 0 95.1319 0C96.516 0 97.6316 0.332289 98.4788 0.996867C99.3259 1.64958 99.7793 2.56337 99.839 3.73825H96.5279C96.5041 3.33476 96.3549 3.02027 96.0805 2.79479C95.8061 2.55744 95.4541 2.43876 95.0245 2.43876C94.6547 2.43876 94.3564 2.53964 94.1297 2.74138C93.903 2.93126 93.7896 3.21015 93.7896 3.57804C93.7896 3.98153 93.9805 4.29602 94.3623 4.5215C94.7442 4.74699 95.3407 4.99027 96.1521 5.25135C96.9634 5.5243 97.6197 5.78539 98.1208 6.03461C98.6339 6.28382 99.0753 6.64578 99.4452 7.12048C99.8151 7.59518 100 8.20635 100 8.954C100 9.66605 99.8151 10.3128 99.4452 10.8943C99.0873 11.4758 98.5623 11.9387 97.8702 12.2828C97.1782 12.627 96.3609 12.7991 95.4183 12.7991Z" fill="#00C6E1"/>
<path d="M32.9152 2.64294V5.19546H36.9857V7.56822H32.9152V10.3364H37.519V12.7991H29.8756V0.180298H37.519V2.64294H32.9152ZM46.4603 0.180298V2.64294H41.3766V5.30331H45.1805V7.69405H41.3766V12.7991H38.337V0.180298H46.4603Z" fill="#00C6E1"/>
<path fill-rule="evenodd" clip-rule="evenodd" d="M14.1471 5.59067e-05L14.147 0L0 14.0369L3.02844 17.0479L14.144 6.01885L25.2483 17.0591L28.2799 14.0511L17.1754 3.01096L14.1471 5.59067e-05ZM17.2683 18.9609L14.2398 15.9499L8.0799 22.0619L11.1083 25.0729L14.2367 21.9688L17.2693 24.9838L20.3009 21.9761L17.2681 18.9609H17.2683ZM14.2439 7.92498L14.2439 7.92502L24.3408 17.9634L21.3092 20.9714L14.2409 13.9439L7.06852 21.0604L4.04009 18.0494L14.2439 7.92498Z" fill="#00C6E1"/>
</svg>
