<svg width="265" height="212" viewBox="0 0 265 212" fill="none" xmlns="http://www.w3.org/2000/svg">
<g filter="url(#filter0_d_130_230)">
<path d="M215.046 61.8411C198.287 61.8411 184.645 29.588 171.446 29.588C154.393 29.588 130.829 52.56 118.476 34.6036C81.8459 -18.6446 91.3783 -30.0464 171.446 -30.0464C288.95 -30.0464 267.542 61.8411 215.046 61.8411Z" fill="#E15555"/>
</g>
<g filter="url(#filter1_d_130_230)">
<path d="M398.166 29.4775C398.166 76.3793 235.418 192.936 235.418 80.6569C235.418 27.9232 187.921 41.8027 168.361 16.6263C125.037 -39.1374 175.738 -57 222.76 -57C269.782 -57 398.166 -17.4243 398.166 29.4775Z" fill="#FF8C8C"/>
</g>
<defs>
<filter id="filter0_d_130_230" x="0" y="-128.046" width="355.272" height="287.887" filterUnits="userSpaceOnUse" color-interpolation-filters="sRGB">
<feFlood flood-opacity="0" result="BackgroundImageFix"/>
<feColorMatrix in="SourceAlpha" type="matrix" values="0 0 0 0 0 0 0 0 0 0 0 0 0 0 0 0 0 0 127 0" result="hardAlpha"/>
<feOffset/>
<feGaussianBlur stdDeviation="49"/>
<feColorMatrix type="matrix" values="0 0 0 0 0 0 0 0 0 0 0 0 0 0 0 0 0 0 0.15 0"/>
<feBlend mode="normal" in2="BackgroundImageFix" result="effect1_dropShadow_130_230"/>
<feBlend mode="normal" in="SourceGraphic" in2="effect1_dropShadow_130_230" result="shape"/>
</filter>
<filter id="filter1_d_130_230" x="67.9073" y="-141" width="414.258" height="353" filterUnits="userSpaceOnUse" color-interpolation-filters="sRGB">
<feFlood flood-opacity="0" result="BackgroundImageFix"/>
<feColorMatrix in="SourceAlpha" type="matrix" values="0 0 0 0 0 0 0 0 0 0 0 0 0 0 0 0 0 0 127 0" result="hardAlpha"/>
<feOffset/>
<feGaussianBlur stdDeviation="42"/>
<feColorMatrix type="matrix" values="0 0 0 0 0 0 0 0 0 0 0 0 0 0 0 0 0 0 0.15 0"/>
<feBlend mode="normal" in2="BackgroundImageFix" result="effect1_dropShadow_130_230"/>
<feBlend mode="normal" in="SourceGraphic" in2="effect1_dropShadow_130_230" result="shape"/>
</filter>
</defs>
</svg>
