<svg width="44" height="44" viewBox="0 0 44 44" fill="none" xmlns="http://www.w3.org/2000/svg">
<rect width="44" height="44" rx="8" fill="#1EBAEB"/>
<path d="M24.0625 6C24.9268 6 25.625 6.69971 25.625 7.5625V10.6875C25.625 11.5518 24.9268 12.25 24.0625 12.25H20.1562V13.8125H30.708C32.2949 13.8125 33.6084 14.9404 33.8379 16.4687L34.9463 23.7783C34.9805 24.0078 35 24.2422 35 24.4766V27.875C35 29.5986 33.5986 31 31.875 31H13.125C11.3989 31 10 29.5986 10 27.875V24.4766C10 24.2422 10.0177 24.0078 10.0529 23.7783L11.1602 16.4687C11.3916 14.9404 12.7046 13.8125 14.2495 13.8125H16.9873V12.25H13.0811C12.2622 12.25 11.5186 11.5518 11.5186 10.6875V7.5625C11.5186 6.69971 12.2622 6 13.0811 6H24.0625ZM14.6875 8.34375C14.2559 8.34375 13.9062 8.69336 13.9062 9.125C13.9062 9.55664 14.2559 9.90625 14.6875 9.90625H22.5C22.9297 9.90625 23.2812 9.55664 23.2812 9.125C23.2812 8.69336 22.9297 8.34375 22.5 8.34375H14.6875ZM13.9062 27.875H31.0938C31.5234 27.875 31.875 27.5234 31.875 27.0938C31.875 26.6641 31.5234 26.3125 31.0938 26.3125H13.9062C13.4746 26.3125 13.125 26.6641 13.125 27.0938C13.125 27.5234 13.4746 27.875 13.9062 27.875ZM15.4688 16.5469C14.8218 16.5469 14.2969 17.0693 14.2969 17.7188C14.2969 18.3682 14.8218 18.8906 15.4688 18.8906C16.1182 18.8906 16.6406 18.3682 16.6406 17.7188C16.6406 17.0693 16.1182 16.5469 15.4688 16.5469ZM20.1562 18.8906C20.8057 18.8906 21.3281 18.3682 21.3281 17.7188C21.3281 17.0693 20.8057 16.5469 20.1562 16.5469C19.5068 16.5469 18.9844 17.0693 18.9844 17.7188C18.9844 18.3682 19.5068 18.8906 20.1562 18.8906ZM17.8125 20.4531C17.1631 20.4531 16.6406 20.9756 16.6406 21.625C16.6406 22.2744 17.1631 22.7969 17.8125 22.7969C18.4619 22.7969 18.9844 22.2744 18.9844 21.625C18.9844 20.9756 18.4619 20.4531 17.8125 20.4531ZM24.8438 18.8906C25.4932 18.8906 26.0156 18.3682 26.0156 17.7188C26.0156 17.0693 25.4932 16.5469 24.8438 16.5469C24.1943 16.5469 23.6719 17.0693 23.6719 17.7188C23.6719 18.3682 24.1943 18.8906 24.8438 18.8906ZM22.5 20.4531C21.8506 20.4531 21.3281 20.9756 21.3281 21.625C21.3281 22.2744 21.8506 22.7969 22.5 22.7969C23.1494 22.7969 23.6719 22.2744 23.6719 21.625C23.6719 20.9756 23.1494 20.4531 22.5 20.4531ZM29.5312 18.8906C30.1807 18.8906 30.7031 18.3682 30.7031 17.7188C30.7031 17.0693 30.1807 16.5469 29.5312 16.5469C28.8818 16.5469 28.3594 17.0693 28.3594 17.7188C28.3594 18.3682 28.8818 18.8906 29.5312 18.8906ZM27.1875 20.4531C26.5381 20.4531 26.0156 20.9756 26.0156 21.625C26.0156 22.2744 26.5381 22.7969 27.1875 22.7969C27.8369 22.7969 28.3594 22.2744 28.3594 21.625C28.3594 20.9756 27.8369 20.4531 27.1875 20.4531Z" fill="white"/>
<path d="M11.1023 35.6364H12.4233L13.2756 37.4091H13.3097L14.1619 35.6364H15.483L13.8807 38.6278V40H12.7045V38.6278L11.1023 35.6364ZM16.0305 40.0511C15.8217 40.0511 15.6371 40.017 15.4766 39.9489C15.3175 39.8793 15.1925 39.7741 15.1016 39.6335C15.0107 39.4929 14.9652 39.3139 14.9652 39.0966C14.9652 38.9176 14.9957 38.7649 15.0568 38.6385C15.1179 38.5107 15.2031 38.4062 15.3125 38.3253C15.4219 38.2443 15.549 38.1825 15.6939 38.1399C15.8402 38.0973 15.9979 38.0696 16.1669 38.0568C16.3501 38.0426 16.4972 38.0256 16.608 38.0057C16.7202 37.9844 16.8011 37.9553 16.8509 37.9183C16.9006 37.88 16.9254 37.8295 16.9254 37.767V37.7585C16.9254 37.6733 16.8928 37.608 16.8274 37.5625C16.7621 37.517 16.6783 37.4943 16.576 37.4943C16.4638 37.4943 16.3722 37.5192 16.3011 37.5689C16.2315 37.6172 16.1896 37.6918 16.1754 37.7926H15.093C15.1072 37.5937 15.1705 37.4105 15.2827 37.2429C15.3963 37.0739 15.5618 36.9389 15.7791 36.8381C15.9964 36.7358 16.2678 36.6847 16.593 36.6847C16.8274 36.6847 17.0376 36.7124 17.2237 36.7678C17.4098 36.8217 17.5682 36.8977 17.6989 36.9957C17.8295 37.0923 17.929 37.206 17.9972 37.3366C18.0668 37.4659 18.1016 37.6065 18.1016 37.7585V40H17.0021V39.5398H16.9766C16.9112 39.6619 16.8317 39.7607 16.7379 39.8359C16.6456 39.9112 16.5398 39.9659 16.4205 40C16.3026 40.0341 16.1726 40.0511 16.0305 40.0511ZM16.4141 39.3097C16.5036 39.3097 16.5874 39.2912 16.6655 39.2543C16.745 39.2173 16.8097 39.1641 16.8594 39.0945C16.9091 39.0249 16.9339 38.9403 16.9339 38.8409V38.5682C16.9027 38.581 16.8693 38.593 16.8338 38.6044C16.7997 38.6158 16.7628 38.6264 16.723 38.6364C16.6847 38.6463 16.6435 38.6555 16.5994 38.6641C16.5568 38.6726 16.5121 38.6804 16.4652 38.6875C16.3743 38.7017 16.2997 38.7251 16.2415 38.7578C16.1847 38.7891 16.142 38.8281 16.1136 38.875C16.0866 38.9205 16.0732 38.9716 16.0732 39.0284C16.0732 39.1193 16.1051 39.1889 16.169 39.2372C16.233 39.2855 16.3146 39.3097 16.4141 39.3097ZM18.6465 40V35.6364H20.53C20.8539 35.6364 21.1373 35.7003 21.3801 35.8281C21.623 35.956 21.812 36.1357 21.9469 36.3672C22.0819 36.5987 22.1493 36.8693 22.1493 37.179C22.1493 37.4915 22.0797 37.7621 21.9405 37.9908C21.8027 38.2195 21.6088 38.3956 21.3588 38.5192C21.1103 38.6428 20.8198 38.7045 20.4874 38.7045H19.3624V37.7841H20.2488C20.388 37.7841 20.5066 37.7599 20.6046 37.7116C20.704 37.6619 20.78 37.5916 20.8326 37.5007C20.8865 37.4098 20.9135 37.3026 20.9135 37.179C20.9135 37.054 20.8865 36.9474 20.8326 36.8594C20.78 36.7699 20.704 36.7017 20.6046 36.6548C20.5066 36.6065 20.388 36.5824 20.2488 36.5824H19.8311V40H18.6465ZM26.8113 37.8182C26.8113 38.304 26.7168 38.7138 26.5279 39.0476C26.339 39.38 26.084 39.6321 25.763 39.804C25.4419 39.9744 25.084 40.0597 24.6891 40.0597C24.2914 40.0597 23.932 39.9737 23.611 39.8018C23.2914 39.6286 23.0371 39.3757 22.8482 39.0433C22.6607 38.7095 22.5669 38.3011 22.5669 37.8182C22.5669 37.3324 22.6607 36.9233 22.8482 36.5909C23.0371 36.2571 23.2914 36.005 23.611 35.8345C23.932 35.6626 24.2914 35.5767 24.6891 35.5767C25.084 35.5767 25.4419 35.6626 25.763 35.8345C26.084 36.005 26.339 36.2571 26.5279 36.5909C26.7168 36.9233 26.8113 37.3324 26.8113 37.8182ZM25.5925 37.8182C25.5925 37.5568 25.5577 37.3366 25.4881 37.1577C25.4199 36.9773 25.3184 36.8409 25.1834 36.7486C25.0499 36.6548 24.8851 36.608 24.6891 36.608C24.4931 36.608 24.3276 36.6548 24.1926 36.7486C24.0591 36.8409 23.9576 36.9773 23.888 37.1577C23.8198 37.3366 23.7857 37.5568 23.7857 37.8182C23.7857 38.0795 23.8198 38.3004 23.888 38.4808C23.9576 38.6598 24.0591 38.7962 24.1926 38.8899C24.3276 38.9822 24.4931 39.0284 24.6891 39.0284C24.8851 39.0284 25.0499 38.9822 25.1834 38.8899C25.3184 38.7962 25.4199 38.6598 25.4881 38.4808C25.5577 38.3004 25.5925 38.0795 25.5925 37.8182ZM29.7116 37C29.7003 36.858 29.647 36.7472 29.5518 36.6676C29.4581 36.5881 29.3153 36.5483 29.1236 36.5483C29.0014 36.5483 28.9013 36.5632 28.8232 36.593C28.7464 36.6214 28.6896 36.6605 28.6527 36.7102C28.6158 36.7599 28.5966 36.8168 28.5952 36.8807C28.5923 36.9332 28.6016 36.9808 28.6229 37.0234C28.6456 37.0646 28.6811 37.1023 28.7294 37.1364C28.7777 37.169 28.8395 37.1989 28.9148 37.2259C28.9901 37.2528 29.0795 37.277 29.1832 37.2983L29.5412 37.375C29.7827 37.4261 29.9893 37.4936 30.1612 37.5774C30.3331 37.6612 30.4737 37.7599 30.5831 37.8736C30.6925 37.9858 30.7727 38.1122 30.8239 38.2528C30.8764 38.3935 30.9034 38.5469 30.9048 38.7131C30.9034 39 30.8317 39.2429 30.6896 39.4418C30.5476 39.6406 30.3445 39.7919 30.0803 39.8956C29.8175 39.9993 29.5014 40.0511 29.1321 40.0511C28.7528 40.0511 28.4219 39.995 28.1392 39.8828C27.858 39.7706 27.6392 39.598 27.483 39.3651C27.3281 39.1307 27.25 38.831 27.2486 38.4659H28.3736C28.3807 38.5994 28.4141 38.7116 28.4737 38.8026C28.5334 38.8935 28.6172 38.9624 28.7251 39.0092C28.8345 39.0561 28.9645 39.0795 29.1151 39.0795C29.2415 39.0795 29.3473 39.0639 29.4325 39.0327C29.5178 39.0014 29.5824 38.9581 29.6264 38.9027C29.6705 38.8473 29.6932 38.7841 29.6946 38.7131C29.6932 38.6463 29.6712 38.5881 29.6286 38.5384C29.5874 38.4872 29.5192 38.4418 29.424 38.402C29.3288 38.3608 29.2003 38.3224 29.0384 38.2869L28.6037 38.1932C28.2173 38.1094 27.9126 37.9695 27.6896 37.7734C27.468 37.576 27.358 37.3068 27.3594 36.9659C27.358 36.6889 27.4318 36.4467 27.581 36.2393C27.7315 36.0305 27.9396 35.8679 28.2053 35.7514C28.4723 35.6349 28.7784 35.5767 29.1236 35.5767C29.4759 35.5767 29.7805 35.6357 30.0376 35.7536C30.2947 35.8714 30.4929 36.0376 30.6321 36.2521C30.7727 36.4652 30.8438 36.7145 30.8452 37H29.7116Z" fill="white"/>
</svg>
