<svg width="44" height="44" viewBox="0 0 44 44" fill="none" xmlns="http://www.w3.org/2000/svg">
<rect width="44" height="44" rx="8" fill="#1EBAEB"/>
<path d="M24.0625 9C24.9268 9 25.625 9.69971 25.625 10.5625V13.6875C25.625 14.5518 24.9268 15.25 24.0625 15.25H20.1562V16.8125H30.708C32.2949 16.8125 33.6084 17.9404 33.8379 19.4687L34.9463 26.7783C34.9805 27.0078 35 27.2422 35 27.4766V30.875C35 32.5986 33.5986 34 31.875 34H13.125C11.3989 34 10 32.5986 10 30.875V27.4766C10 27.2422 10.0177 27.0078 10.0529 26.7783L11.1602 19.4687C11.3916 17.9404 12.7046 16.8125 14.2495 16.8125H16.9873V15.25H13.0811C12.2622 15.25 11.5186 14.5518 11.5186 13.6875V10.5625C11.5186 9.69971 12.2622 9 13.0811 9H24.0625ZM14.6875 11.3438C14.2559 11.3438 13.9062 11.6934 13.9062 12.125C13.9062 12.5566 14.2559 12.9062 14.6875 12.9062H22.5C22.9297 12.9062 23.2812 12.5566 23.2812 12.125C23.2812 11.6934 22.9297 11.3438 22.5 11.3438H14.6875ZM13.9062 30.875H31.0938C31.5234 30.875 31.875 30.5234 31.875 30.0938C31.875 29.6641 31.5234 29.3125 31.0938 29.3125H13.9062C13.4746 29.3125 13.125 29.6641 13.125 30.0938C13.125 30.5234 13.4746 30.875 13.9062 30.875ZM15.4688 19.5469C14.8218 19.5469 14.2969 20.0693 14.2969 20.7188C14.2969 21.3682 14.8218 21.8906 15.4688 21.8906C16.1182 21.8906 16.6406 21.3682 16.6406 20.7188C16.6406 20.0693 16.1182 19.5469 15.4688 19.5469ZM20.1562 21.8906C20.8057 21.8906 21.3281 21.3682 21.3281 20.7188C21.3281 20.0693 20.8057 19.5469 20.1562 19.5469C19.5068 19.5469 18.9844 20.0693 18.9844 20.7188C18.9844 21.3682 19.5068 21.8906 20.1562 21.8906ZM17.8125 23.4531C17.1631 23.4531 16.6406 23.9756 16.6406 24.625C16.6406 25.2744 17.1631 25.7969 17.8125 25.7969C18.4619 25.7969 18.9844 25.2744 18.9844 24.625C18.9844 23.9756 18.4619 23.4531 17.8125 23.4531ZM24.8438 21.8906C25.4932 21.8906 26.0156 21.3682 26.0156 20.7188C26.0156 20.0693 25.4932 19.5469 24.8438 19.5469C24.1943 19.5469 23.6719 20.0693 23.6719 20.7188C23.6719 21.3682 24.1943 21.8906 24.8438 21.8906ZM22.5 23.4531C21.8506 23.4531 21.3281 23.9756 21.3281 24.625C21.3281 25.2744 21.8506 25.7969 22.5 25.7969C23.1494 25.7969 23.6719 25.2744 23.6719 24.625C23.6719 23.9756 23.1494 23.4531 22.5 23.4531ZM29.5312 21.8906C30.1807 21.8906 30.7031 21.3682 30.7031 20.7188C30.7031 20.0693 30.1807 19.5469 29.5312 19.5469C28.8818 19.5469 28.3594 20.0693 28.3594 20.7188C28.3594 21.3682 28.8818 21.8906 29.5312 21.8906ZM27.1875 23.4531C26.5381 23.4531 26.0156 23.9756 26.0156 24.625C26.0156 25.2744 26.5381 25.7969 27.1875 25.7969C27.8369 25.7969 28.3594 25.2744 28.3594 24.625C28.3594 23.9756 27.8369 23.4531 27.1875 23.4531Z" fill="white"/>
</svg>
