<svg width="192" height="100" viewBox="0 0 192 100" fill="none" xmlns="http://www.w3.org/2000/svg">
<path fill-rule="evenodd" clip-rule="evenodd" d="M192 0H0V100H192V0ZM11 22C12.4445 22 13.8749 21.7155 15.2095 21.1627C16.5441 20.6099 17.7567 19.7996 18.7782 18.7782C19.7996 17.7567 20.6099 16.5441 21.1627 15.2095C21.7155 13.8749 22 12.4445 22 11H11V22ZM22 89C22 87.5555 21.7155 86.1251 21.1627 84.7905C20.6099 83.4559 19.7996 82.2433 18.7782 81.2218C17.7567 80.2004 16.5441 79.3901 15.2095 78.8373C13.8749 78.2845 12.4445 78 11 78V89H22ZM176.79 78.8373C178.125 78.2845 179.555 78 181 78V89H170C170 87.5555 170.285 86.1251 170.837 84.7905C171.39 83.4559 172.2 82.2433 173.222 81.2218C174.243 80.2004 175.456 79.3901 176.79 78.8373ZM170 11C170 12.4445 170.285 13.8749 170.837 15.2095C171.39 16.5441 172.2 17.7567 173.222 18.7782C174.243 19.7996 175.456 20.6099 176.79 21.1627C178.125 21.7155 179.555 22 181 22V11H170Z" fill="#0CCF08"/>
<path d="M120 50C120 65.464 109.255 78 96 78C82.7452 78 72 65.464 72 50C72 34.536 82.7452 22 96 22C109.255 22 120 34.536 120 50Z" fill="#04990A"/>
<path d="M91.8047 54.1797V56H85.1016V54.4453L88.1797 50.5312C88.4766 50.1198 88.7083 49.7604 88.875 49.4531C89.0417 49.1406 89.1615 48.862 89.2344 48.6172C89.3073 48.3672 89.3438 48.1328 89.3438 47.9141C89.3438 47.5755 89.3047 47.2865 89.2266 47.0469C89.1484 46.8021 89.0312 46.6146 88.875 46.4844C88.724 46.349 88.5365 46.2812 88.3125 46.2812C88.0417 46.2812 87.8177 46.3646 87.6406 46.5312C87.4635 46.6979 87.3307 46.9271 87.2422 47.2188C87.1589 47.5052 87.1172 47.8307 87.1172 48.1953H84.9219C84.9219 47.513 85.0599 46.888 85.3359 46.3203C85.6172 45.7526 86.0104 45.3021 86.5156 44.9688C87.026 44.6302 87.638 44.4609 88.3516 44.4609C89.0495 44.4609 89.6328 44.5911 90.1016 44.8516C90.5755 45.112 90.9323 45.4844 91.1719 45.9688C91.4167 46.4479 91.5391 47.0208 91.5391 47.6875C91.5391 48.0677 91.4896 48.4375 91.3906 48.7969C91.2917 49.151 91.151 49.5052 90.9688 49.8594C90.7865 50.2083 90.5625 50.5651 90.2969 50.9297C90.0312 51.2943 89.7318 51.6719 89.3984 52.0625L87.9141 54.1797H91.8047Z" fill="white"/>
<path d="M99.7969 49.3125V51.2891C99.7969 52.1432 99.7161 52.8776 99.5547 53.4922C99.3932 54.1068 99.1667 54.612 98.875 55.0078C98.5833 55.3984 98.237 55.6875 97.8359 55.875C97.4349 56.0625 96.9922 56.1562 96.5078 56.1562C96.1224 56.1562 95.7604 56.0964 95.4219 55.9766C95.0833 55.8568 94.776 55.6745 94.5 55.4297C94.2292 55.1797 93.9948 54.8646 93.7969 54.4844C93.6042 54.099 93.4557 53.6432 93.3516 53.1172C93.2474 52.5859 93.1953 51.9766 93.1953 51.2891V49.3125C93.1953 48.4583 93.276 47.7266 93.4375 47.1172C93.6042 46.5026 93.8333 46 94.125 45.6094C94.4167 45.2188 94.763 44.9323 95.1641 44.75C95.5703 44.5625 96.0156 44.4688 96.5 44.4688C96.8802 44.4688 97.2396 44.5286 97.5781 44.6484C97.9219 44.763 98.2266 44.9427 98.4922 45.1875C98.763 45.4323 98.9948 45.7474 99.1875 46.1328C99.3854 46.513 99.5365 46.9688 99.6406 47.5C99.7448 48.026 99.7969 48.6302 99.7969 49.3125ZM97.6016 51.5938V48.9922C97.6016 48.5911 97.5833 48.2396 97.5469 47.9375C97.5156 47.6354 97.4714 47.3802 97.4141 47.1719C97.3568 46.9635 97.2812 46.7943 97.1875 46.6641C97.0938 46.5339 96.9896 46.4401 96.875 46.3828C96.7604 46.3203 96.6328 46.2891 96.4922 46.2891C96.3255 46.2891 96.1745 46.3359 96.0391 46.4297C95.9036 46.5234 95.7865 46.6771 95.6875 46.8906C95.5885 47.099 95.513 47.3776 95.4609 47.7266C95.4141 48.0703 95.3906 48.4922 95.3906 48.9922V51.5938C95.3906 51.9948 95.4062 52.349 95.4375 52.6562C95.474 52.9635 95.5234 53.2266 95.5859 53.4453C95.6536 53.6589 95.7292 53.8307 95.8125 53.9609C95.901 54.0911 96.0026 54.1875 96.1172 54.25C96.237 54.3073 96.3672 54.3359 96.5078 54.3359C96.6745 54.3359 96.8255 54.2891 96.9609 54.1953C97.1016 54.0964 97.2188 53.9401 97.3125 53.7266C97.4062 53.513 97.4766 53.2318 97.5234 52.8828C97.5755 52.5286 97.6016 52.099 97.6016 51.5938Z" fill="white"/>
<path d="M107.891 49.3125V51.2891C107.891 52.1432 107.81 52.8776 107.648 53.4922C107.487 54.1068 107.26 54.612 106.969 55.0078C106.677 55.3984 106.331 55.6875 105.93 55.875C105.529 56.0625 105.086 56.1562 104.602 56.1562C104.216 56.1562 103.854 56.0964 103.516 55.9766C103.177 55.8568 102.87 55.6745 102.594 55.4297C102.323 55.1797 102.089 54.8646 101.891 54.4844C101.698 54.099 101.549 53.6432 101.445 53.1172C101.341 52.5859 101.289 51.9766 101.289 51.2891V49.3125C101.289 48.4583 101.37 47.7266 101.531 47.1172C101.698 46.5026 101.927 46 102.219 45.6094C102.51 45.2188 102.857 44.9323 103.258 44.75C103.664 44.5625 104.109 44.4688 104.594 44.4688C104.974 44.4688 105.333 44.5286 105.672 44.6484C106.016 44.763 106.32 44.9427 106.586 45.1875C106.857 45.4323 107.089 45.7474 107.281 46.1328C107.479 46.513 107.63 46.9688 107.734 47.5C107.839 48.026 107.891 48.6302 107.891 49.3125ZM105.695 51.5938V48.9922C105.695 48.5911 105.677 48.2396 105.641 47.9375C105.609 47.6354 105.565 47.3802 105.508 47.1719C105.451 46.9635 105.375 46.7943 105.281 46.6641C105.188 46.5339 105.083 46.4401 104.969 46.3828C104.854 46.3203 104.727 46.2891 104.586 46.2891C104.419 46.2891 104.268 46.3359 104.133 46.4297C103.997 46.5234 103.88 46.6771 103.781 46.8906C103.682 47.099 103.607 47.3776 103.555 47.7266C103.508 48.0703 103.484 48.4922 103.484 48.9922V51.5938C103.484 51.9948 103.5 52.349 103.531 52.6562C103.568 52.9635 103.617 53.2266 103.68 53.4453C103.747 53.6589 103.823 53.8307 103.906 53.9609C103.995 54.0911 104.096 54.1875 104.211 54.25C104.331 54.3073 104.461 54.3359 104.602 54.3359C104.768 54.3359 104.919 54.2891 105.055 54.1953C105.195 54.0964 105.312 53.9401 105.406 53.7266C105.5 53.513 105.57 53.2318 105.617 52.8828C105.669 52.5286 105.695 52.099 105.695 51.5938Z" fill="white"/>
</svg>
