<svg width="192" height="100" viewBox="0 0 192 100" fill="none" xmlns="http://www.w3.org/2000/svg">
<path fill-rule="evenodd" clip-rule="evenodd" d="M192 0H0V100H192V0ZM11 22C12.4445 22 13.8749 21.7155 15.2095 21.1627C16.5441 20.6099 17.7567 19.7996 18.7782 18.7782C19.7996 17.7567 20.6099 16.5441 21.1627 15.2095C21.7155 13.8749 22 12.4445 22 11H11V22ZM22 89C22 87.5555 21.7155 86.1251 21.1627 84.7905C20.6099 83.4559 19.7996 82.2433 18.7782 81.2218C17.7567 80.2004 16.5441 79.3901 15.2095 78.8373C13.8749 78.2845 12.4445 78 11 78V89H22ZM176.79 78.8373C178.125 78.2845 179.555 78 181 78V89H170C170 87.5555 170.285 86.1251 170.837 84.7905C171.39 83.4559 172.2 82.2433 173.222 81.2218C174.243 80.2004 175.456 79.3901 176.79 78.8373ZM170 11C170 12.4445 170.285 13.8749 170.837 15.2095C171.39 16.5441 172.2 17.7567 173.222 18.7782C174.243 19.7996 175.456 20.6099 176.79 21.1627C178.125 21.7155 179.555 22 181 22V11H170Z" fill="#FFA756"/>
<path d="M120 50C120 65.464 109.255 78 96 78C82.7452 78 72 65.464 72 50C72 34.536 82.7452 22 96 22C109.255 22 120 34.536 120 50Z" fill="#D17100"/>
<path d="M95.3516 54.1797V56H88.6484V54.4453L91.7266 50.5312C92.0234 50.1198 92.2552 49.7604 92.4219 49.4531C92.5885 49.1406 92.7083 48.862 92.7812 48.6172C92.8542 48.3672 92.8906 48.1328 92.8906 47.9141C92.8906 47.5755 92.8516 47.2865 92.7734 47.0469C92.6953 46.8021 92.5781 46.6146 92.4219 46.4844C92.2708 46.349 92.0833 46.2812 91.8594 46.2812C91.5885 46.2812 91.3646 46.3646 91.1875 46.5312C91.0104 46.6979 90.8776 46.9271 90.7891 47.2188C90.7057 47.5052 90.6641 47.8307 90.6641 48.1953H88.4688C88.4688 47.513 88.6068 46.888 88.8828 46.3203C89.1641 45.7526 89.5573 45.3021 90.0625 44.9688C90.5729 44.6302 91.1849 44.4609 91.8984 44.4609C92.5964 44.4609 93.1797 44.5911 93.6484 44.8516C94.1224 45.112 94.4792 45.4844 94.7188 45.9688C94.9635 46.4479 95.0859 47.0208 95.0859 47.6875C95.0859 48.0677 95.0365 48.4375 94.9375 48.7969C94.8385 49.151 94.6979 49.5052 94.5156 49.8594C94.3333 50.2083 94.1094 50.5651 93.8438 50.9297C93.5781 51.2943 93.2786 51.6719 92.9453 52.0625L91.4609 54.1797H95.3516Z" fill="white"/>
<path d="M103.344 49.3125V51.2891C103.344 52.1432 103.263 52.8776 103.102 53.4922C102.94 54.1068 102.714 54.612 102.422 55.0078C102.13 55.3984 101.784 55.6875 101.383 55.875C100.982 56.0625 100.539 56.1562 100.055 56.1562C99.6693 56.1562 99.3073 56.0964 98.9688 55.9766C98.6302 55.8568 98.3229 55.6745 98.0469 55.4297C97.776 55.1797 97.5417 54.8646 97.3438 54.4844C97.151 54.099 97.0026 53.6432 96.8984 53.1172C96.7943 52.5859 96.7422 51.9766 96.7422 51.2891V49.3125C96.7422 48.4583 96.8229 47.7266 96.9844 47.1172C97.151 46.5026 97.3802 46 97.6719 45.6094C97.9635 45.2188 98.3099 44.9323 98.7109 44.75C99.1172 44.5625 99.5625 44.4688 100.047 44.4688C100.427 44.4688 100.786 44.5286 101.125 44.6484C101.469 44.763 101.773 44.9427 102.039 45.1875C102.31 45.4323 102.542 45.7474 102.734 46.1328C102.932 46.513 103.083 46.9688 103.188 47.5C103.292 48.026 103.344 48.6302 103.344 49.3125ZM101.148 51.5938V48.9922C101.148 48.5911 101.13 48.2396 101.094 47.9375C101.062 47.6354 101.018 47.3802 100.961 47.1719C100.904 46.9635 100.828 46.7943 100.734 46.6641C100.641 46.5339 100.536 46.4401 100.422 46.3828C100.307 46.3203 100.18 46.2891 100.039 46.2891C99.8724 46.2891 99.7214 46.3359 99.5859 46.4297C99.4505 46.5234 99.3333 46.6771 99.2344 46.8906C99.1354 47.099 99.0599 47.3776 99.0078 47.7266C98.9609 48.0703 98.9375 48.4922 98.9375 48.9922V51.5938C98.9375 51.9948 98.9531 52.349 98.9844 52.6562C99.0208 52.9635 99.0703 53.2266 99.1328 53.4453C99.2005 53.6589 99.276 53.8307 99.3594 53.9609C99.4479 54.0911 99.5495 54.1875 99.6641 54.25C99.7839 54.3073 99.9141 54.3359 100.055 54.3359C100.221 54.3359 100.372 54.2891 100.508 54.1953C100.648 54.0964 100.766 53.9401 100.859 53.7266C100.953 53.513 101.023 53.2318 101.07 52.8828C101.122 52.5286 101.148 52.099 101.148 51.5938Z" fill="white"/>
</svg>
