<svg width="192" height="100" viewBox="0 0 192 100" fill="none" xmlns="http://www.w3.org/2000/svg">
<path fill-rule="evenodd" clip-rule="evenodd" d="M192 0H0V100H192V0ZM11 22C12.4445 22 13.8749 21.7155 15.2095 21.1627C16.5441 20.6099 17.7567 19.7996 18.7782 18.7782C19.7996 17.7567 20.6099 16.5441 21.1627 15.2095C21.7155 13.8749 22 12.4445 22 11H11V22ZM22 89C22 87.5555 21.7155 86.1251 21.1627 84.7905C20.6099 83.4559 19.7996 82.2433 18.7782 81.2218C17.7567 80.2004 16.5441 79.3901 15.2095 78.8373C13.8749 78.2845 12.4445 78 11 78V89H22ZM176.79 78.8373C178.125 78.2845 179.555 78 181 78V89H170C170 87.5555 170.285 86.1251 170.837 84.7905C171.39 83.4559 172.2 82.2433 173.222 81.2218C174.243 80.2004 175.456 79.3901 176.79 78.8373ZM170 11C170 12.4445 170.285 13.8749 170.837 15.2095C171.39 16.5441 172.2 17.7567 173.222 18.7782C174.243 19.7996 175.456 20.6099 176.79 21.1627C178.125 21.7155 179.555 22 181 22V11H170Z" fill="#FF6056"/>
<path d="M120 50C120 65.464 109.255 78 96 78C82.7452 78 72 65.464 72 50C72 34.536 82.7452 22 96 22C109.255 22 120 34.536 120 50Z" fill="#D10000"/>
<path d="M90.6328 50.8438L88.8828 50.4062L89.4531 44.625H94.9453V46.5H91.25L91.0391 48.9453C91.1589 48.862 91.3359 48.7708 91.5703 48.6719C91.8099 48.5729 92.0755 48.5234 92.3672 48.5234C92.8359 48.5234 93.2526 48.6094 93.6172 48.7812C93.9818 48.9531 94.2891 49.2031 94.5391 49.5312C94.7891 49.8594 94.9792 50.2604 95.1094 50.7344C95.2396 51.2083 95.3047 51.7448 95.3047 52.3438C95.3047 52.849 95.2344 53.3307 95.0938 53.7891C94.9583 54.2474 94.7526 54.6536 94.4766 55.0078C94.2005 55.362 93.8542 55.6432 93.4375 55.8516C93.0208 56.0547 92.5339 56.1562 91.9766 56.1562C91.5547 56.1562 91.1458 56.0833 90.75 55.9375C90.3594 55.7917 90.0078 55.5755 89.6953 55.2891C89.3828 54.9974 89.1328 54.6484 88.9453 54.2422C88.7578 53.8307 88.6641 53.362 88.6641 52.8359H90.8281C90.849 53.1432 90.9089 53.4115 91.0078 53.6406C91.112 53.8646 91.2422 54.0365 91.3984 54.1562C91.5599 54.276 91.7474 54.3359 91.9609 54.3359C92.1693 54.3359 92.349 54.2839 92.5 54.1797C92.651 54.0703 92.7708 53.9193 92.8594 53.7266C92.9479 53.5339 93.013 53.3099 93.0547 53.0547C93.0964 52.7943 93.1172 52.5156 93.1172 52.2188C93.1172 51.9167 93.0885 51.6432 93.0312 51.3984C92.9792 51.1536 92.8958 50.9453 92.7812 50.7734C92.6719 50.5964 92.5312 50.4609 92.3594 50.3672C92.1875 50.2682 91.9844 50.2188 91.75 50.2188C91.4323 50.2188 91.1927 50.2865 91.0312 50.4219C90.875 50.5521 90.7422 50.6927 90.6328 50.8438Z" fill="white"/>
<path d="M103.344 49.3125V51.2891C103.344 52.1432 103.263 52.8776 103.102 53.4922C102.94 54.1068 102.714 54.612 102.422 55.0078C102.13 55.3984 101.784 55.6875 101.383 55.875C100.982 56.0625 100.539 56.1562 100.055 56.1562C99.6693 56.1562 99.3073 56.0964 98.9688 55.9766C98.6302 55.8568 98.3229 55.6745 98.0469 55.4297C97.776 55.1797 97.5417 54.8646 97.3438 54.4844C97.151 54.099 97.0026 53.6432 96.8984 53.1172C96.7943 52.5859 96.7422 51.9766 96.7422 51.2891V49.3125C96.7422 48.4583 96.8229 47.7266 96.9844 47.1172C97.151 46.5026 97.3802 46 97.6719 45.6094C97.9635 45.2188 98.3099 44.9323 98.7109 44.75C99.1172 44.5625 99.5625 44.4688 100.047 44.4688C100.427 44.4688 100.786 44.5286 101.125 44.6484C101.469 44.763 101.773 44.9427 102.039 45.1875C102.31 45.4323 102.542 45.7474 102.734 46.1328C102.932 46.513 103.083 46.9688 103.188 47.5C103.292 48.026 103.344 48.6302 103.344 49.3125ZM101.148 51.5938V48.9922C101.148 48.5911 101.13 48.2396 101.094 47.9375C101.062 47.6354 101.018 47.3802 100.961 47.1719C100.904 46.9635 100.828 46.7943 100.734 46.6641C100.641 46.5339 100.536 46.4401 100.422 46.3828C100.307 46.3203 100.18 46.2891 100.039 46.2891C99.8724 46.2891 99.7214 46.3359 99.5859 46.4297C99.4505 46.5234 99.3333 46.6771 99.2344 46.8906C99.1354 47.099 99.0599 47.3776 99.0078 47.7266C98.9609 48.0703 98.9375 48.4922 98.9375 48.9922V51.5938C98.9375 51.9948 98.9531 52.349 98.9844 52.6562C99.0208 52.9635 99.0703 53.2266 99.1328 53.4453C99.2005 53.6589 99.276 53.8307 99.3594 53.9609C99.4479 54.0911 99.5495 54.1875 99.6641 54.25C99.7839 54.3073 99.9141 54.3359 100.055 54.3359C100.221 54.3359 100.372 54.2891 100.508 54.1953C100.648 54.0964 100.766 53.9401 100.859 53.7266C100.953 53.513 101.023 53.2318 101.07 52.8828C101.122 52.5286 101.148 52.099 101.148 51.5938Z" fill="white"/>
</svg>
