<svg width="192" height="100" viewBox="0 0 192 100" fill="none" xmlns="http://www.w3.org/2000/svg">
<path fill-rule="evenodd" clip-rule="evenodd" d="M192 0H0V100H192V0ZM11 22C12.4445 22 13.8749 21.7155 15.2095 21.1627C16.5441 20.6099 17.7567 19.7996 18.7782 18.7782C19.7996 17.7567 20.6099 16.5441 21.1627 15.2095C21.7155 13.8749 22 12.4445 22 11H11V22ZM22 89C22 87.5555 21.7155 86.1251 21.1627 84.7905C20.6099 83.4559 19.7996 82.2433 18.7782 81.2218C17.7567 80.2004 16.5441 79.3901 15.2095 78.8373C13.8749 78.2845 12.4445 78 11 78V89H22ZM176.79 78.8373C178.125 78.2845 179.555 78 181 78V89H170C170 87.5555 170.285 86.1251 170.837 84.7905C171.39 83.4559 172.2 82.2433 173.222 81.2218C174.243 80.2004 175.456 79.3901 176.79 78.8373ZM170 11C170 12.4445 170.285 13.8749 170.837 15.2095C171.39 16.5441 172.2 17.7567 173.222 18.7782C174.243 19.7996 175.456 20.6099 176.79 21.1627C178.125 21.7155 179.555 22 181 22V11H170Z" fill="#059EF3"/>
<path d="M120 50C120 65.464 109.255 78 96 78C82.7452 78 72 65.464 72 50C72 34.536 82.7452 22 96 22C109.255 22 120 34.536 120 50Z" fill="#0083AC"/>
<path d="M85.9062 44.6016V56H83.7188V47.2891L81.5469 48.125V46.2969L85.6719 44.6016H85.9062Z" fill="white"/>
<path d="M95.75 49.3125V51.2891C95.75 52.1432 95.6693 52.8776 95.5078 53.4922C95.3464 54.1068 95.1198 54.612 94.8281 55.0078C94.5365 55.3984 94.1901 55.6875 93.7891 55.875C93.388 56.0625 92.9453 56.1562 92.4609 56.1562C92.0755 56.1562 91.7135 56.0964 91.375 55.9766C91.0365 55.8568 90.7292 55.6745 90.4531 55.4297C90.1823 55.1797 89.9479 54.8646 89.75 54.4844C89.5573 54.099 89.4089 53.6432 89.3047 53.1172C89.2005 52.5859 89.1484 51.9766 89.1484 51.2891V49.3125C89.1484 48.4583 89.2292 47.7266 89.3906 47.1172C89.5573 46.5026 89.7865 46 90.0781 45.6094C90.3698 45.2188 90.7161 44.9323 91.1172 44.75C91.5234 44.5625 91.9688 44.4688 92.4531 44.4688C92.8333 44.4688 93.1927 44.5286 93.5312 44.6484C93.875 44.763 94.1797 44.9427 94.4453 45.1875C94.7161 45.4323 94.9479 45.7474 95.1406 46.1328C95.3385 46.513 95.4896 46.9688 95.5938 47.5C95.6979 48.026 95.75 48.6302 95.75 49.3125ZM93.5547 51.5938V48.9922C93.5547 48.5911 93.5365 48.2396 93.5 47.9375C93.4688 47.6354 93.4245 47.3802 93.3672 47.1719C93.3099 46.9635 93.2344 46.7943 93.1406 46.6641C93.0469 46.5339 92.9427 46.4401 92.8281 46.3828C92.7135 46.3203 92.5859 46.2891 92.4453 46.2891C92.2786 46.2891 92.1276 46.3359 91.9922 46.4297C91.8568 46.5234 91.7396 46.6771 91.6406 46.8906C91.5417 47.099 91.4661 47.3776 91.4141 47.7266C91.3672 48.0703 91.3438 48.4922 91.3438 48.9922V51.5938C91.3438 51.9948 91.3594 52.349 91.3906 52.6562C91.4271 52.9635 91.4766 53.2266 91.5391 53.4453C91.6068 53.6589 91.6823 53.8307 91.7656 53.9609C91.8542 54.0911 91.9557 54.1875 92.0703 54.25C92.1901 54.3073 92.3203 54.3359 92.4609 54.3359C92.6276 54.3359 92.7786 54.2891 92.9141 54.1953C93.0547 54.0964 93.1719 53.9401 93.2656 53.7266C93.3594 53.513 93.4297 53.2318 93.4766 52.8828C93.5286 52.5286 93.5547 52.099 93.5547 51.5938Z" fill="white"/>
<path d="M103.844 49.3125V51.2891C103.844 52.1432 103.763 52.8776 103.602 53.4922C103.44 54.1068 103.214 54.612 102.922 55.0078C102.63 55.3984 102.284 55.6875 101.883 55.875C101.482 56.0625 101.039 56.1562 100.555 56.1562C100.169 56.1562 99.8073 56.0964 99.4688 55.9766C99.1302 55.8568 98.8229 55.6745 98.5469 55.4297C98.276 55.1797 98.0417 54.8646 97.8438 54.4844C97.651 54.099 97.5026 53.6432 97.3984 53.1172C97.2943 52.5859 97.2422 51.9766 97.2422 51.2891V49.3125C97.2422 48.4583 97.3229 47.7266 97.4844 47.1172C97.651 46.5026 97.8802 46 98.1719 45.6094C98.4635 45.2188 98.8099 44.9323 99.2109 44.75C99.6172 44.5625 100.062 44.4688 100.547 44.4688C100.927 44.4688 101.286 44.5286 101.625 44.6484C101.969 44.763 102.273 44.9427 102.539 45.1875C102.81 45.4323 103.042 45.7474 103.234 46.1328C103.432 46.513 103.583 46.9688 103.688 47.5C103.792 48.026 103.844 48.6302 103.844 49.3125ZM101.648 51.5938V48.9922C101.648 48.5911 101.63 48.2396 101.594 47.9375C101.562 47.6354 101.518 47.3802 101.461 47.1719C101.404 46.9635 101.328 46.7943 101.234 46.6641C101.141 46.5339 101.036 46.4401 100.922 46.3828C100.807 46.3203 100.68 46.2891 100.539 46.2891C100.372 46.2891 100.221 46.3359 100.086 46.4297C99.9505 46.5234 99.8333 46.6771 99.7344 46.8906C99.6354 47.099 99.5599 47.3776 99.5078 47.7266C99.4609 48.0703 99.4375 48.4922 99.4375 48.9922V51.5938C99.4375 51.9948 99.4531 52.349 99.4844 52.6562C99.5208 52.9635 99.5703 53.2266 99.6328 53.4453C99.7005 53.6589 99.776 53.8307 99.8594 53.9609C99.9479 54.0911 100.049 54.1875 100.164 54.25C100.284 54.3073 100.414 54.3359 100.555 54.3359C100.721 54.3359 100.872 54.2891 101.008 54.1953C101.148 54.0964 101.266 53.9401 101.359 53.7266C101.453 53.513 101.523 53.2318 101.57 52.8828C101.622 52.5286 101.648 52.099 101.648 51.5938Z" fill="white"/>
<path d="M111.938 49.3125V51.2891C111.938 52.1432 111.857 52.8776 111.695 53.4922C111.534 54.1068 111.307 54.612 111.016 55.0078C110.724 55.3984 110.378 55.6875 109.977 55.875C109.576 56.0625 109.133 56.1562 108.648 56.1562C108.263 56.1562 107.901 56.0964 107.562 55.9766C107.224 55.8568 106.917 55.6745 106.641 55.4297C106.37 55.1797 106.135 54.8646 105.938 54.4844C105.745 54.099 105.596 53.6432 105.492 53.1172C105.388 52.5859 105.336 51.9766 105.336 51.2891V49.3125C105.336 48.4583 105.417 47.7266 105.578 47.1172C105.745 46.5026 105.974 46 106.266 45.6094C106.557 45.2188 106.904 44.9323 107.305 44.75C107.711 44.5625 108.156 44.4688 108.641 44.4688C109.021 44.4688 109.38 44.5286 109.719 44.6484C110.062 44.763 110.367 44.9427 110.633 45.1875C110.904 45.4323 111.135 45.7474 111.328 46.1328C111.526 46.513 111.677 46.9688 111.781 47.5C111.885 48.026 111.938 48.6302 111.938 49.3125ZM109.742 51.5938V48.9922C109.742 48.5911 109.724 48.2396 109.688 47.9375C109.656 47.6354 109.612 47.3802 109.555 47.1719C109.497 46.9635 109.422 46.7943 109.328 46.6641C109.234 46.5339 109.13 46.4401 109.016 46.3828C108.901 46.3203 108.773 46.2891 108.633 46.2891C108.466 46.2891 108.315 46.3359 108.18 46.4297C108.044 46.5234 107.927 46.6771 107.828 46.8906C107.729 47.099 107.654 47.3776 107.602 47.7266C107.555 48.0703 107.531 48.4922 107.531 48.9922V51.5938C107.531 51.9948 107.547 52.349 107.578 52.6562C107.615 52.9635 107.664 53.2266 107.727 53.4453C107.794 53.6589 107.87 53.8307 107.953 53.9609C108.042 54.0911 108.143 54.1875 108.258 54.25C108.378 54.3073 108.508 54.3359 108.648 54.3359C108.815 54.3359 108.966 54.2891 109.102 54.1953C109.242 54.0964 109.359 53.9401 109.453 53.7266C109.547 53.513 109.617 53.2318 109.664 52.8828C109.716 52.5286 109.742 52.099 109.742 51.5938Z" fill="white"/>
</svg>
